<svg xmlns="http://www.w3.org/2000/svg" xmlns:xlink="http://www.w3.org/1999/xlink" version="1.1" x="0px" y="0px" viewBox="0 0 512 640" enable-background="new 0 0 512 512" xml:space="preserve"><g><path d="M388.2,2H123.8c-23.3,0-42.3,19-42.3,42.3v423.3c0,23.3,19,42.3,42.3,42.3h264.5c23.3,0,42.3-19,42.3-42.3V44.3   C430.6,21,411.6,2,388.2,2z M402.3,467.7c0,7.8-6.3,14.1-14.1,14.1H123.8c-7.8,0-14.1-6.3-14.1-14.1V44.3c0-7.8,6.3-14.1,14.1-14.1   h264.5c7.8,0,14.1,6.3,14.1,14.1V467.7z"/><path d="M266.4,221.1h-52.8c-7.8,0-14.1,6.3-14.1,14.1c0,7.8,6.3,14.1,14.1,14.1h36.3v10.2c0,7.8,6.3,14.1,14.1,14.1   c7.8,0,14.1-6.3,14.1-14.1v-11.8c19.7-5.2,34.4-23.2,34.4-44.5c0-25.4-20.7-46.1-46.1-46.1h-20.8c-9.9,0-17.9-8-17.9-17.9   c0-9.9,8-17.9,17.9-17.9h52.8c7.8,0,14.1-6.3,14.1-14.1c0-7.8-6.3-14.1-14.1-14.1h-20.3V83c0-7.8-6.3-14.1-14.1-14.1   c-7.8,0-14.1,6.3-14.1,14.1v10.1h-4.3c-25.4,0-46.1,20.7-46.1,46.1c0,25.4,20.7,46.1,46.1,46.1h20.8c9.8,0,17.9,8,17.9,17.9   C284.3,213,276.2,221.1,266.4,221.1z"/><path d="M267.2,425.3h-22.4c-7.8,0-14.1,6.3-14.1,14.1c0,7.8,6.3,14.1,14.1,14.1h22.4c7.8,0,14.1-6.3,14.1-14.1   C281.3,431.7,275,425.3,267.2,425.3z"/><path d="M345.9,304H166.1c-7.8,0-14.1,6.3-14.1,14.1c0,7.8,6.3,14.1,14.1,14.1h179.9c7.8,0,14.1-6.3,14.1-14.1   C360,310.4,353.7,304,345.9,304z"/><path d="M345.9,370.5H166.1c-7.8,0-14.1,6.3-14.1,14.1c0,7.8,6.3,14.1,14.1,14.1h179.9c7.8,0,14.1-6.3,14.1-14.1   C360,376.8,353.7,370.5,345.9,370.5z"/></g><text x="0" y="527" fill="#000000" font-size="5px" font-weight="bold" font-family="'Helvetica Neue', Helvetica, Arial-Unicode, Arial, Sans-serif">Created by Icon Fair</text><text x="0" y="532" fill="#000000" font-size="5px" font-weight="bold" font-family="'Helvetica Neue', Helvetica, Arial-Unicode, Arial, Sans-serif">from the Noun Project</text></svg>